<svg xmlns:inkscape="http://www.inkscape.org/namespaces/inkscape" xmlns:sodipodi="http://sodipodi.sourceforge.net/DTD/sodipodi-0.dtd" xmlns="http://www.w3.org/2000/svg" xmlns:svg="http://www.w3.org/2000/svg" width="2560" height="860" viewBox="0 0 2560 860" fill="none" id="svg10" sodipodi:docname="frame preto vermelho.svg" inkscape:version="1.4.2 (f4327f4, 2025-05-13)"><g clip-path="url(#clip0_145_1012)" id="g9"><rect width="2560" height="860" fill="#00011D" id="rect1" style="fill:#000000;fill-opacity:1"></rect><path d="M598.208 917.64C656.389 920.152 805.774 909.101 937.873 844.81C1103 764.446 1150.08 618.785 1234.84 618.785C1304.54 618.785 1334.67 702.773 1405.62 693.499C1501.68 680.942 1479.08 381.46 1628.5 373.298C1777.93 365.136 2171.72 245.022 2315.5 -8" stroke="#6617FF" stroke-width="5.02277" id="path1" style="stroke:#fec106;stroke-opacity:1"></path><path d="M632.738 918.268C619.185 918.725 607.527 918.67 598.208 918.268H632.738C703.799 915.874 826.932 899.432 937.873 845.438C1103 765.074 1150.08 619.413 1234.84 619.413C1304.54 619.413 1334.67 703.401 1405.62 694.127C1501.68 681.57 1479.08 382.088 1628.5 373.926C1777.93 365.764 2169.72 246.022 2313.5 -7L2609 -25.5V918.268H632.738Z" fill="url(#paint0_linear_145_1012)" id="path2" style="stroke:#000000;stroke-opacity:1;stroke-width:1;stroke-dasharray:none"></path><rect x="918.165" y="795.753" width="140.587" height="40.7218" rx="20.3609" fill="#6617FF" id="rect2" style="fill:#fec106;fill-opacity:1"></rect><path d="M939.103 821.114V809.727H940.623V821.114H939.103ZM946.099 821.114L942.345 816.072H944.129L947.945 821.114H946.099ZM940.049 817.018V815.669H943.09C943.565 815.669 943.974 815.57 944.315 815.374C944.657 815.177 944.92 814.909 945.106 814.567C945.293 814.216 945.386 813.817 945.386 813.373C945.386 812.928 945.293 812.535 945.106 812.194C944.92 811.842 944.657 811.568 944.315 811.372C943.974 811.165 943.565 811.061 943.09 811.061H940.049V809.727H942.811C943.638 809.727 944.362 809.851 944.982 810.099C945.603 810.348 946.084 810.73 946.425 811.247C946.766 811.765 946.937 812.432 946.937 813.249V813.497C946.937 814.314 946.761 814.981 946.41 815.498C946.068 816.015 945.587 816.398 944.967 816.646C944.357 816.894 943.638 817.018 942.811 817.018H940.049ZM953.362 821.114C952.473 821.114 951.718 820.969 951.098 820.679C950.477 820.379 950.001 819.961 949.67 819.423C949.35 818.875 949.189 818.234 949.189 817.499H950.586C950.586 817.851 950.668 818.208 950.834 818.57C951.01 818.932 951.299 819.237 951.703 819.485C952.106 819.723 952.659 819.842 953.362 819.842C954.293 819.842 954.981 819.645 955.426 819.252C955.881 818.859 956.108 818.409 956.108 817.903C956.108 817.406 955.907 816.992 955.503 816.662C955.1 816.331 954.516 816.129 953.75 816.057L952.726 815.963C951.734 815.87 950.942 815.57 950.353 815.064C949.763 814.557 949.469 813.833 949.469 812.892C949.469 812.24 949.624 811.687 949.934 811.232C950.255 810.767 950.699 810.41 951.268 810.162C951.847 809.913 952.525 809.789 953.3 809.789C954.076 809.789 954.743 809.929 955.302 810.208C955.87 810.477 956.31 810.875 956.62 811.403C956.93 811.92 957.086 812.545 957.086 813.28H955.689C955.689 812.907 955.607 812.556 955.441 812.225C955.276 811.884 955.017 811.604 954.666 811.387C954.324 811.17 953.869 811.061 953.3 811.061C952.794 811.061 952.359 811.144 951.997 811.31C951.646 811.465 951.372 811.682 951.175 811.961C950.989 812.24 950.896 812.551 950.896 812.892C950.896 813.337 951.056 813.724 951.377 814.055C951.697 814.376 952.189 814.567 952.85 814.629L953.874 814.722C954.981 814.826 955.865 815.152 956.527 815.7C957.199 816.237 957.535 816.972 957.535 817.903C957.535 818.544 957.365 819.107 957.023 819.593C956.682 820.069 956.201 820.442 955.581 820.71C954.96 820.979 954.221 821.114 953.362 821.114ZM952.695 823.115V820.85H954.029V823.115H952.695ZM952.633 810.549V808.284H953.967V810.549H952.633ZM963.149 821.114V819.252C963.149 818.797 963.211 818.409 963.335 818.089C963.47 817.768 963.697 817.479 964.018 817.22C964.339 816.951 964.773 816.693 965.321 816.444L967.446 815.467C967.964 815.229 968.372 814.924 968.672 814.552C968.972 814.169 969.122 813.678 969.122 813.078C969.122 812.354 968.92 811.79 968.517 811.387C968.114 810.984 967.545 810.782 966.81 810.782C966.086 810.782 965.518 810.984 965.104 811.387C964.69 811.79 964.483 812.354 964.483 813.078H963.025C963.025 812.426 963.16 811.827 963.429 811.278C963.708 810.73 964.127 810.296 964.685 809.975C965.244 809.644 965.952 809.479 966.81 809.479C967.669 809.479 968.372 809.644 968.92 809.975C969.479 810.296 969.892 810.72 970.161 811.247C970.44 811.775 970.58 812.349 970.58 812.969V813.187C970.58 814.004 970.342 814.691 969.866 815.25C969.401 815.808 968.77 816.269 967.974 816.63L965.849 817.608C965.373 817.825 965.052 818.042 964.887 818.259C964.721 818.477 964.639 818.766 964.639 819.128V820.555L964.235 819.842H970.72V821.114H963.149ZM972.739 821.114V819.252C972.739 818.797 972.801 818.409 972.925 818.089C973.06 817.768 973.287 817.479 973.608 817.22C973.928 816.951 974.363 816.693 974.911 816.444L977.036 815.467C977.553 815.229 977.962 814.924 978.262 814.552C978.562 814.169 978.711 813.678 978.711 813.078C978.711 812.354 978.51 811.79 978.106 811.387C977.703 810.984 977.134 810.782 976.4 810.782C975.676 810.782 975.107 810.984 974.694 811.387C974.28 811.79 974.073 812.354 974.073 813.078H972.615C972.615 812.426 972.749 811.827 973.018 811.278C973.297 810.73 973.716 810.296 974.275 809.975C974.833 809.644 975.542 809.479 976.4 809.479C977.258 809.479 977.962 809.644 978.51 809.975C979.068 810.296 979.482 810.72 979.751 811.247C980.03 811.775 980.17 812.349 980.17 812.969V813.187C980.17 814.004 979.932 814.691 979.456 815.25C978.991 815.808 978.36 816.269 977.564 816.63L975.438 817.608C974.962 817.825 974.642 818.042 974.476 818.259C974.311 818.477 974.228 818.766 974.228 819.128V820.555L973.825 819.842H980.309V821.114H972.739ZM982.282 821.114V819.221H984.082V821.114H982.282ZM987.444 821.114L992.237 811.201L992.144 811.061H985.954V809.789H993.556V811.589L988.995 821.114H987.444ZM985.954 812.861V809.789H987.195V812.861H985.954ZM999.888 821.393C999.04 821.393 998.316 821.248 997.717 820.959C997.127 820.659 996.646 820.255 996.274 819.749C995.912 819.242 995.648 818.658 995.483 817.996C995.317 817.323 995.234 816.615 995.234 815.87V815.033C995.234 813.988 995.395 813.047 995.715 812.209C996.046 811.372 996.553 810.71 997.236 810.224C997.929 809.727 998.813 809.479 999.888 809.479C1000.96 809.479 1001.84 809.727 1002.53 810.224C1003.21 810.71 1003.71 811.372 1004.03 812.209C1004.36 813.047 1004.53 813.988 1004.53 815.033V815.87C1004.53 816.615 1004.44 817.323 1004.28 817.996C1004.11 818.658 1003.84 819.242 1003.47 819.749C1003.11 820.255 1002.63 820.659 1002.04 820.959C1001.46 821.248 1000.74 821.393 999.888 821.393ZM999.888 820.028C1000.96 820.028 1001.75 819.666 1002.25 818.942C1002.75 818.208 1003.01 817.049 1003.01 815.467C1003.01 813.812 1002.75 812.628 1002.23 811.915C1001.72 811.201 1000.94 810.844 999.888 810.844C998.823 810.844 998.032 811.201 997.515 811.915C997.008 812.628 996.755 813.802 996.755 815.436C996.755 817.029 997.008 818.192 997.515 818.926C998.022 819.661 998.813 820.028 999.888 820.028ZM1010.55 821.393C1009.68 821.393 1008.95 821.217 1008.35 820.866C1007.75 820.504 1007.29 820.033 1006.98 819.454C1006.67 818.875 1006.51 818.259 1006.51 817.608H1007.97C1007.97 818.084 1008.08 818.508 1008.28 818.88C1008.5 819.252 1008.8 819.547 1009.18 819.764C1009.57 819.981 1010.02 820.09 1010.55 820.09C1011.07 820.09 1011.52 819.986 1011.9 819.78C1012.29 819.562 1012.6 819.268 1012.81 818.895C1013.03 818.513 1013.14 818.084 1013.14 817.608C1013.14 817.132 1013.03 816.703 1012.81 816.32C1012.61 815.938 1012.31 815.632 1011.91 815.405C1011.53 815.177 1011.08 815.064 1010.55 815.064C1010.17 815.064 1009.78 815.131 1009.38 815.265C1008.99 815.389 1008.68 815.57 1008.44 815.808H1007.07L1007.65 809.789H1013.59V811.061H1008.52L1008.89 810.549L1008.45 814.94L1008.05 814.8C1008.35 814.5 1008.71 814.262 1009.14 814.086C1009.57 813.911 1010.06 813.823 1010.61 813.823C1011.48 813.823 1012.21 814.004 1012.8 814.366C1013.39 814.717 1013.83 815.177 1014.13 815.746C1014.44 816.305 1014.6 816.889 1014.6 817.499V817.716C1014.6 818.327 1014.44 818.916 1014.13 819.485C1013.82 820.043 1013.36 820.504 1012.75 820.866C1012.15 821.217 1011.42 821.393 1010.55 821.393ZM1016.91 823.549L1015.71 823.099L1017.16 819.097L1018.38 819.562L1016.91 823.549ZM1024.01 821.393C1023.16 821.393 1022.44 821.228 1021.85 820.897C1021.26 820.566 1020.81 820.126 1020.5 819.578C1020.2 819.03 1020.05 818.435 1020.05 817.794H1021.51C1021.51 818.497 1021.73 819.056 1022.18 819.469C1022.63 819.883 1023.24 820.09 1024.01 820.09C1024.52 820.09 1024.96 819.997 1025.33 819.811C1025.7 819.625 1025.99 819.361 1026.2 819.02C1026.4 818.668 1026.51 818.259 1026.51 817.794C1026.51 817.091 1026.28 816.522 1025.83 816.088C1025.38 815.653 1024.78 815.436 1024.03 815.436C1023.7 815.436 1023.43 815.477 1023.19 815.56C1022.96 815.632 1022.76 815.726 1022.58 815.839L1021.84 814.505L1026.17 811.341L1026.01 811.061H1020.5V809.789H1027.41V811.852L1023.82 814.459L1022.74 814.505C1022.91 814.443 1023.11 814.391 1023.31 814.35C1023.53 814.309 1023.78 814.288 1024.07 814.288C1024.9 814.288 1025.6 814.443 1026.18 814.753C1026.76 815.064 1027.2 815.477 1027.5 815.994C1027.81 816.512 1027.97 817.075 1027.97 817.685V817.903C1027.97 818.502 1027.81 819.071 1027.5 819.609C1027.2 820.136 1026.76 820.566 1026.17 820.897C1025.59 821.228 1024.87 821.393 1024.01 821.393ZM1030.08 821.114V819.252C1030.08 818.797 1030.14 818.409 1030.27 818.089C1030.4 817.768 1030.63 817.479 1030.95 817.22C1031.27 816.951 1031.7 816.693 1032.25 816.444L1034.38 815.467C1034.89 815.229 1035.3 814.924 1035.6 814.552C1035.9 814.169 1036.05 813.678 1036.05 813.078C1036.05 812.354 1035.85 811.79 1035.45 811.387C1035.04 810.984 1034.48 810.782 1033.74 810.782C1033.02 810.782 1032.45 810.984 1032.03 811.387C1031.62 811.79 1031.41 812.354 1031.41 813.078H1029.96C1029.96 812.426 1030.09 811.827 1030.36 811.278C1030.64 810.73 1031.06 810.296 1031.62 809.975C1032.17 809.644 1032.88 809.479 1033.74 809.479C1034.6 809.479 1035.3 809.644 1035.85 809.975C1036.41 810.296 1036.82 810.72 1037.09 811.247C1037.37 811.775 1037.51 812.349 1037.51 812.969V813.187C1037.51 814.004 1037.27 814.691 1036.8 815.25C1036.33 815.808 1035.7 816.269 1034.9 816.63L1032.78 817.608C1032.3 817.825 1031.98 818.042 1031.82 818.259C1031.65 818.477 1031.57 818.766 1031.57 819.128V820.555L1031.17 819.842H1037.65V821.114H1030.08Z" fill="white" id="path3" style="fill:#000000;fill-opacity:1"></path><rect x="1162.5" y="603.779" width="137.678" height="40.7218" rx="20.3609" fill="#6617FF" id="rect3" style="fill:#fec106;fill-opacity:1"></rect><path d="M1183.48 629.14V617.753H1185V629.14H1183.48ZM1190.48 629.14L1186.72 624.098H1188.51L1192.32 629.14H1190.48ZM1184.43 625.044V623.695H1187.47C1187.94 623.695 1188.35 623.596 1188.69 623.4C1189.03 623.203 1189.3 622.934 1189.48 622.593C1189.67 622.242 1189.76 621.843 1189.76 621.399C1189.76 620.954 1189.67 620.561 1189.48 620.22C1189.3 619.868 1189.03 619.594 1188.69 619.397C1188.35 619.191 1187.94 619.087 1187.47 619.087H1184.43V617.753H1187.19C1188.01 617.753 1188.74 617.877 1189.36 618.125C1189.98 618.374 1190.46 618.756 1190.8 619.273C1191.14 619.79 1191.31 620.458 1191.31 621.275V621.523C1191.31 622.34 1191.14 623.007 1190.79 623.524C1190.45 624.041 1189.96 624.424 1189.34 624.672C1188.73 624.92 1188.01 625.044 1187.19 625.044H1184.43ZM1197.74 629.14C1196.85 629.14 1196.09 628.995 1195.47 628.705C1194.85 628.405 1194.38 627.987 1194.05 627.449C1193.73 626.901 1193.57 626.259 1193.57 625.525H1194.96C1194.96 625.877 1195.05 626.234 1195.21 626.596C1195.39 626.957 1195.68 627.263 1196.08 627.511C1196.48 627.749 1197.04 627.868 1197.74 627.868C1198.67 627.868 1199.36 627.671 1199.8 627.278C1200.26 626.885 1200.49 626.435 1200.49 625.928C1200.49 625.432 1200.28 625.018 1199.88 624.687C1199.48 624.356 1198.89 624.155 1198.13 624.082L1197.1 623.989C1196.11 623.896 1195.32 623.596 1194.73 623.09C1194.14 622.583 1193.85 621.859 1193.85 620.918C1193.85 620.266 1194 619.713 1194.31 619.258C1194.63 618.792 1195.08 618.436 1195.65 618.187C1196.22 617.939 1196.9 617.815 1197.68 617.815C1198.45 617.815 1199.12 617.955 1199.68 618.234C1200.25 618.503 1200.69 618.901 1201 619.428C1201.31 619.946 1201.46 620.571 1201.46 621.306H1200.07C1200.07 620.933 1199.98 620.582 1199.82 620.251C1199.65 619.909 1199.39 619.63 1199.04 619.413C1198.7 619.196 1198.25 619.087 1197.68 619.087C1197.17 619.087 1196.74 619.17 1196.37 619.335C1196.02 619.491 1195.75 619.708 1195.55 619.987C1195.37 620.266 1195.27 620.576 1195.27 620.918C1195.27 621.362 1195.43 621.75 1195.75 622.081C1196.07 622.402 1196.57 622.593 1197.23 622.655L1198.25 622.748C1199.36 622.852 1200.24 623.177 1200.9 623.726C1201.58 624.263 1201.91 624.998 1201.91 625.928C1201.91 626.57 1201.74 627.133 1201.4 627.619C1201.06 628.095 1200.58 628.467 1199.96 628.736C1199.34 629.005 1198.6 629.14 1197.74 629.14ZM1197.07 631.141V628.876H1198.41V631.141H1197.07ZM1197.01 618.575V616.31H1198.34V618.575H1197.01ZM1204 629.14V627.278C1204 626.823 1204.06 626.435 1204.18 626.115C1204.32 625.794 1204.54 625.504 1204.87 625.246C1205.19 624.977 1205.62 624.718 1206.17 624.47L1208.29 623.493C1208.81 623.255 1209.22 622.95 1209.52 622.578C1209.82 622.195 1209.97 621.704 1209.97 621.104C1209.97 620.38 1209.77 619.816 1209.36 619.413C1208.96 619.01 1208.39 618.808 1207.66 618.808C1206.93 618.808 1206.36 619.01 1205.95 619.413C1205.54 619.816 1205.33 620.38 1205.33 621.104H1203.87C1203.87 620.452 1204.01 619.852 1204.28 619.304C1204.55 618.756 1204.97 618.322 1205.53 618.001C1206.09 617.67 1206.8 617.505 1207.66 617.505C1208.52 617.505 1209.22 617.67 1209.77 618.001C1210.33 618.322 1210.74 618.746 1211.01 619.273C1211.29 619.801 1211.43 620.375 1211.43 620.995V621.212C1211.43 622.029 1211.19 622.717 1210.71 623.276C1210.25 623.834 1209.62 624.294 1208.82 624.656L1206.7 625.634C1206.22 625.851 1205.9 626.068 1205.73 626.285C1205.57 626.502 1205.49 626.792 1205.49 627.154V628.581L1205.08 627.868H1211.57V629.14H1204ZM1217.22 617.505C1218.04 617.505 1218.73 617.65 1219.28 617.939C1219.84 618.229 1220.28 618.627 1220.6 619.134C1220.93 619.63 1221.16 620.204 1221.3 620.856C1221.44 621.507 1221.51 622.19 1221.51 622.903V623.648C1221.51 625.437 1221.07 626.818 1220.18 627.79C1219.29 628.752 1218 629.233 1216.32 629.233C1215.91 629.233 1215.57 629.222 1215.29 629.202C1215.01 629.181 1214.71 629.15 1214.38 629.109V627.837C1214.72 627.878 1215.03 627.909 1215.32 627.93C1215.61 627.95 1215.96 627.961 1216.38 627.961C1217.32 627.961 1218.06 627.785 1218.61 627.433C1219.16 627.082 1219.55 626.58 1219.79 625.928C1220.03 625.267 1220.15 624.47 1220.15 623.539V622.841L1220.52 621.461C1220.51 622.278 1220.35 622.955 1220.04 623.493C1219.74 624.031 1219.32 624.434 1218.78 624.703C1218.26 624.972 1217.65 625.106 1216.95 625.106C1216.15 625.106 1215.46 624.946 1214.9 624.625C1214.35 624.294 1213.92 623.845 1213.63 623.276C1213.35 622.707 1213.21 622.061 1213.21 621.337C1213.21 620.602 1213.36 619.946 1213.66 619.366C1213.96 618.787 1214.41 618.332 1215 618.001C1215.6 617.67 1216.34 617.505 1217.22 617.505ZM1217.22 618.808C1216.65 618.808 1216.17 618.917 1215.79 619.134C1215.41 619.351 1215.12 619.651 1214.92 620.033C1214.73 620.406 1214.64 620.84 1214.64 621.337C1214.64 621.833 1214.73 622.273 1214.92 622.655C1215.11 623.038 1215.38 623.338 1215.74 623.555C1216.11 623.762 1216.57 623.865 1217.11 623.865C1217.63 623.865 1218.11 623.767 1218.52 623.57C1218.94 623.374 1219.27 623.09 1219.51 622.717C1219.75 622.335 1219.87 621.869 1219.87 621.321C1219.87 620.866 1219.78 620.447 1219.59 620.065C1219.4 619.682 1219.11 619.377 1218.72 619.149C1218.33 618.922 1217.83 618.808 1217.22 618.808ZM1223.77 629.14V627.247H1225.56V629.14H1223.77ZM1227.87 629.14V627.278C1227.87 626.823 1227.93 626.435 1228.06 626.115C1228.19 625.794 1228.42 625.504 1228.74 625.246C1229.06 624.977 1229.5 624.718 1230.04 624.47L1232.17 623.493C1232.69 623.255 1233.09 622.95 1233.39 622.578C1233.69 622.195 1233.84 621.704 1233.84 621.104C1233.84 620.38 1233.64 619.816 1233.24 619.413C1232.84 619.01 1232.27 618.808 1231.53 618.808C1230.81 618.808 1230.24 619.01 1229.83 619.413C1229.41 619.816 1229.21 620.38 1229.21 621.104H1227.75C1227.75 620.452 1227.88 619.852 1228.15 619.304C1228.43 618.756 1228.85 618.322 1229.41 618.001C1229.97 617.67 1230.67 617.505 1231.53 617.505C1232.39 617.505 1233.09 617.67 1233.64 618.001C1234.2 618.322 1234.62 618.746 1234.88 619.273C1235.16 619.801 1235.3 620.375 1235.3 620.995V621.212C1235.3 622.029 1235.06 622.717 1234.59 623.276C1234.12 623.834 1233.49 624.294 1232.7 624.656L1230.57 625.634C1230.1 625.851 1229.77 626.068 1229.61 626.285C1229.44 626.502 1229.36 626.792 1229.36 627.154V628.581L1228.96 627.868H1235.44V629.14H1227.87ZM1241.7 629.45C1240.87 629.45 1240.18 629.305 1239.62 629.016C1239.07 628.726 1238.63 628.333 1238.3 627.837C1237.98 627.33 1237.75 626.751 1237.6 626.099C1237.47 625.448 1237.4 624.765 1237.4 624.051V623.307C1237.4 621.518 1237.84 620.142 1238.73 619.18C1239.62 618.208 1240.91 617.722 1242.6 617.722C1243 617.722 1243.34 617.732 1243.62 617.753C1243.9 617.774 1244.2 617.805 1244.54 617.846V619.118C1244.19 619.077 1243.88 619.046 1243.59 619.025C1243.3 619.004 1242.95 618.994 1242.53 618.994C1241.59 618.994 1240.85 619.17 1240.3 619.522C1239.75 619.873 1239.36 620.38 1239.12 621.042C1238.88 621.693 1238.76 622.485 1238.76 623.415V624.113L1238.39 625.494C1238.4 624.677 1238.56 624 1238.86 623.462C1239.17 622.924 1239.59 622.521 1240.11 622.252C1240.65 621.983 1241.27 621.849 1241.96 621.849C1242.77 621.849 1243.45 622.014 1244.01 622.345C1244.57 622.666 1244.99 623.11 1245.26 623.679C1245.55 624.248 1245.7 624.894 1245.7 625.618C1245.7 626.352 1245.55 627.009 1245.25 627.588C1244.95 628.167 1244.5 628.623 1243.9 628.953C1243.31 629.284 1242.58 629.45 1241.7 629.45ZM1241.7 628.147C1242.27 628.147 1242.74 628.038 1243.12 627.821C1243.51 627.604 1243.79 627.309 1243.98 626.937C1244.17 626.554 1244.27 626.115 1244.27 625.618C1244.27 625.122 1244.18 624.682 1243.99 624.3C1243.81 623.917 1243.53 623.622 1243.15 623.415C1242.79 623.198 1242.34 623.09 1241.81 623.09C1241.28 623.09 1240.8 623.188 1240.38 623.384C1239.96 623.581 1239.64 623.87 1239.4 624.253C1239.16 624.625 1239.04 625.086 1239.04 625.634C1239.04 626.089 1239.14 626.508 1239.32 626.89C1239.51 627.273 1239.8 627.578 1240.19 627.806C1240.58 628.033 1241.09 628.147 1241.7 628.147ZM1251.44 629.419C1250.64 629.419 1249.92 629.274 1249.29 628.985C1248.66 628.695 1248.17 628.292 1247.81 627.774C1247.46 627.257 1247.28 626.658 1247.28 625.975C1247.28 625.52 1247.37 625.111 1247.55 624.749C1247.72 624.377 1247.97 624.057 1248.28 623.788C1248.59 623.519 1248.94 623.312 1249.33 623.167V623.012C1249.02 622.878 1248.74 622.697 1248.48 622.469C1248.23 622.242 1248.03 621.973 1247.87 621.662C1247.73 621.352 1247.66 621 1247.66 620.607C1247.66 619.956 1247.83 619.403 1248.17 618.948C1248.52 618.493 1248.98 618.146 1249.55 617.908C1250.13 617.66 1250.76 617.536 1251.44 617.536C1252.13 617.536 1252.77 617.66 1253.33 617.908C1253.91 618.146 1254.37 618.493 1254.71 618.948C1255.06 619.403 1255.23 619.956 1255.23 620.607C1255.23 621 1255.15 621.352 1255.01 621.662C1254.86 621.973 1254.66 622.242 1254.4 622.469C1254.16 622.697 1253.87 622.878 1253.55 623.012V623.167C1253.95 623.312 1254.31 623.524 1254.62 623.803C1254.93 624.072 1255.18 624.393 1255.35 624.765C1255.53 625.127 1255.61 625.53 1255.61 625.975C1255.61 626.658 1255.43 627.257 1255.07 627.774C1254.72 628.292 1254.23 628.695 1253.6 628.985C1252.98 629.274 1252.26 629.419 1251.44 629.419ZM1251.44 628.147C1252.01 628.147 1252.5 628.059 1252.9 627.883C1253.3 627.697 1253.61 627.438 1253.83 627.107C1254.05 626.766 1254.16 626.368 1254.16 625.913C1254.16 625.458 1254.05 625.065 1253.83 624.734C1253.62 624.403 1253.32 624.15 1252.92 623.974C1252.51 623.788 1252.02 623.695 1251.44 623.695C1250.87 623.695 1250.39 623.788 1249.98 623.974C1249.58 624.15 1249.27 624.403 1249.05 624.734C1248.85 625.065 1248.74 625.458 1248.74 625.913C1248.74 626.368 1248.85 626.766 1249.05 627.107C1249.27 627.438 1249.58 627.697 1249.98 627.883C1250.39 628.059 1250.87 628.147 1251.44 628.147ZM1251.44 622.516C1252.14 622.516 1252.71 622.366 1253.13 622.066C1253.56 621.755 1253.77 621.285 1253.77 620.654C1253.77 620.013 1253.55 619.547 1253.12 619.258C1252.69 618.958 1252.13 618.808 1251.44 618.808C1250.75 618.808 1250.19 618.958 1249.75 619.258C1249.33 619.558 1249.11 620.023 1249.11 620.654C1249.11 621.285 1249.33 621.755 1249.75 622.066C1250.19 622.366 1250.75 622.516 1251.44 622.516ZM1257.98 631.575L1256.79 631.125L1258.23 627.123L1259.46 627.588L1257.98 631.575ZM1265.38 629.419C1264.57 629.419 1263.85 629.274 1263.22 628.985C1262.6 628.695 1262.11 628.292 1261.75 627.774C1261.4 627.257 1261.22 626.658 1261.22 625.975C1261.22 625.52 1261.31 625.111 1261.49 624.749C1261.66 624.377 1261.9 624.057 1262.21 623.788C1262.52 623.519 1262.88 623.312 1263.27 623.167V623.012C1262.96 622.878 1262.67 622.697 1262.42 622.469C1262.17 622.242 1261.97 621.973 1261.81 621.662C1261.67 621.352 1261.59 621 1261.59 620.607C1261.59 619.956 1261.76 619.403 1262.11 618.948C1262.46 618.493 1262.92 618.146 1263.49 617.908C1264.07 617.66 1264.7 617.536 1265.38 617.536C1266.07 617.536 1266.7 617.66 1267.27 617.908C1267.85 618.146 1268.31 618.493 1268.65 618.948C1268.99 619.403 1269.16 619.956 1269.16 620.607C1269.16 621 1269.09 621.352 1268.95 621.662C1268.8 621.973 1268.6 622.242 1268.34 622.469C1268.09 622.697 1267.81 622.878 1267.49 623.012V623.167C1267.89 623.312 1268.25 623.524 1268.56 623.803C1268.87 624.072 1269.11 624.393 1269.29 624.765C1269.46 625.127 1269.55 625.53 1269.55 625.975C1269.55 626.658 1269.37 627.257 1269.01 627.774C1268.66 628.292 1268.17 628.695 1267.54 628.985C1266.91 629.274 1266.2 629.419 1265.38 629.419ZM1265.38 628.147C1265.95 628.147 1266.43 628.059 1266.84 627.883C1267.24 627.697 1267.55 627.438 1267.77 627.107C1267.99 626.766 1268.09 626.368 1268.09 625.913C1268.09 625.458 1267.99 625.065 1267.77 624.734C1267.56 624.403 1267.26 624.15 1266.85 623.974C1266.45 623.788 1265.96 623.695 1265.38 623.695C1264.81 623.695 1264.32 623.788 1263.92 623.974C1263.52 624.15 1263.21 624.403 1262.99 624.734C1262.78 625.065 1262.68 625.458 1262.68 625.913C1262.68 626.368 1262.78 626.766 1262.99 627.107C1263.21 627.438 1263.52 627.697 1263.92 627.883C1264.32 628.059 1264.81 628.147 1265.38 628.147ZM1265.38 622.516C1266.08 622.516 1266.65 622.366 1267.07 622.066C1267.49 621.755 1267.71 621.285 1267.71 620.654C1267.71 620.013 1267.49 619.547 1267.05 619.258C1266.63 618.958 1266.07 618.808 1265.38 618.808C1264.69 618.808 1264.12 618.958 1263.69 619.258C1263.26 619.558 1263.05 620.023 1263.05 620.654C1263.05 621.285 1263.26 621.755 1263.69 622.066C1264.12 622.366 1264.69 622.516 1265.38 622.516ZM1271.5 629.14V627.278C1271.5 626.823 1271.56 626.435 1271.69 626.115C1271.82 625.794 1272.05 625.504 1272.37 625.246C1272.69 624.977 1273.13 624.718 1273.67 624.47L1275.8 623.493C1276.32 623.255 1276.73 622.95 1277.03 622.578C1277.33 622.195 1277.48 621.704 1277.48 621.104C1277.48 620.38 1277.27 619.816 1276.87 619.413C1276.47 619.01 1275.9 618.808 1275.16 618.808C1274.44 618.808 1273.87 619.01 1273.46 619.413C1273.04 619.816 1272.84 620.38 1272.84 621.104H1271.38C1271.38 620.452 1271.51 619.852 1271.78 619.304C1272.06 618.756 1272.48 618.322 1273.04 618.001C1273.6 617.67 1274.31 617.505 1275.16 617.505C1276.02 617.505 1276.73 617.67 1277.27 618.001C1277.83 618.322 1278.25 618.746 1278.51 619.273C1278.79 619.801 1278.93 620.375 1278.93 620.995V621.212C1278.93 622.029 1278.7 622.717 1278.22 623.276C1277.75 623.834 1277.12 624.294 1276.33 624.656L1274.2 625.634C1273.73 625.851 1273.41 626.068 1273.24 626.285C1273.07 626.502 1272.99 626.792 1272.99 627.154V628.581L1272.59 627.868H1279.07V629.14H1271.5Z" fill="white" id="path4" style="fill:#000000;fill-opacity:1"></path><rect x="1485.36" y="395.322" width="141.557" height="40.7218" rx="20.3609" fill="#6617FF" id="rect4" style="fill:#fec106;fill-opacity:1"></rect><path d="M1506.28 420.683V409.296H1507.8V420.683H1506.28ZM1513.28 420.683L1509.53 415.641H1511.31L1515.13 420.683H1513.28ZM1507.23 416.587V415.238H1510.27C1510.75 415.238 1511.16 415.14 1511.5 414.943C1511.84 414.747 1512.1 414.478 1512.29 414.136C1512.47 413.785 1512.57 413.387 1512.57 412.942C1512.57 412.497 1512.47 412.104 1512.29 411.763C1512.1 411.411 1511.84 411.137 1511.5 410.941C1511.16 410.734 1510.75 410.63 1510.27 410.63H1507.23V409.296H1509.99C1510.82 409.296 1511.54 409.42 1512.16 409.669C1512.78 409.917 1513.26 410.299 1513.61 410.817C1513.95 411.334 1514.12 412.001 1514.12 412.818V413.066C1514.12 413.883 1513.94 414.55 1513.59 415.067C1513.25 415.584 1512.77 415.967 1512.15 416.215C1511.54 416.463 1510.82 416.587 1509.99 416.587H1507.23ZM1520.54 420.683C1519.65 420.683 1518.9 420.538 1518.28 420.248C1517.66 419.949 1517.18 419.53 1516.85 418.992C1516.53 418.444 1516.37 417.803 1516.37 417.068H1517.77C1517.77 417.42 1517.85 417.777 1518.01 418.139C1518.19 418.501 1518.48 418.806 1518.88 419.054C1519.29 419.292 1519.84 419.411 1520.54 419.411C1521.47 419.411 1522.16 419.214 1522.61 418.821C1523.06 418.428 1523.29 417.978 1523.29 417.472C1523.29 416.975 1523.09 416.562 1522.68 416.231C1522.28 415.9 1521.7 415.698 1520.93 415.626L1519.91 415.533C1518.91 415.439 1518.12 415.14 1517.53 414.633C1516.94 414.126 1516.65 413.402 1516.65 412.461C1516.65 411.809 1516.8 411.256 1517.12 410.801C1517.44 410.336 1517.88 409.979 1518.45 409.731C1519.03 409.482 1519.71 409.358 1520.48 409.358C1521.26 409.358 1521.92 409.498 1522.48 409.777C1523.05 410.046 1523.49 410.444 1523.8 410.972C1524.11 411.489 1524.27 412.114 1524.27 412.849H1522.87C1522.87 412.476 1522.79 412.125 1522.62 411.794C1522.46 411.453 1522.2 411.173 1521.85 410.956C1521.51 410.739 1521.05 410.63 1520.48 410.63C1519.97 410.63 1519.54 410.713 1519.18 410.879C1518.83 411.034 1518.55 411.251 1518.36 411.53C1518.17 411.809 1518.08 412.12 1518.08 412.461C1518.08 412.906 1518.24 413.293 1518.56 413.624C1518.88 413.945 1519.37 414.136 1520.03 414.198L1521.06 414.291C1522.16 414.395 1523.05 414.721 1523.71 415.269C1524.38 415.807 1524.72 416.541 1524.72 417.472C1524.72 418.113 1524.55 418.677 1524.2 419.163C1523.86 419.638 1523.38 420.011 1522.76 420.28C1522.14 420.548 1521.4 420.683 1520.54 420.683ZM1519.88 422.684V420.419H1521.21V422.684H1519.88ZM1519.81 410.118V407.854H1521.15V410.118H1519.81ZM1534.05 420.962C1533.18 420.962 1532.45 420.786 1531.85 420.435C1531.25 420.073 1530.8 419.602 1530.49 419.023C1530.18 418.444 1530.02 417.828 1530.02 417.177H1531.48C1531.48 417.653 1531.58 418.077 1531.79 418.449C1532.01 418.821 1532.31 419.116 1532.69 419.333C1533.07 419.55 1533.53 419.659 1534.05 419.659C1534.57 419.659 1535.02 419.556 1535.4 419.349C1535.8 419.132 1536.1 418.837 1536.32 418.464C1536.54 418.082 1536.64 417.653 1536.64 417.177C1536.64 416.701 1536.54 416.272 1536.32 415.889C1536.11 415.507 1535.81 415.202 1535.42 414.974C1535.04 414.747 1534.58 414.633 1534.05 414.633C1533.67 414.633 1533.28 414.7 1532.89 414.834C1532.5 414.959 1532.18 415.14 1531.94 415.377H1530.58L1531.15 409.358H1537.09V410.63H1532.02L1532.39 410.118L1531.96 414.509L1531.56 414.369C1531.86 414.069 1532.22 413.831 1532.64 413.655C1533.08 413.48 1533.57 413.392 1534.12 413.392C1534.98 413.392 1535.71 413.573 1536.3 413.935C1536.89 414.286 1537.34 414.747 1537.64 415.315C1537.95 415.874 1538.1 416.458 1538.1 417.068V417.286C1538.1 417.896 1537.95 418.485 1537.64 419.054C1537.33 419.612 1536.87 420.073 1536.26 420.435C1535.66 420.786 1534.92 420.962 1534.05 420.962ZM1544.59 420.962C1543.74 420.962 1543.02 420.817 1542.42 420.528C1541.83 420.228 1541.35 419.824 1540.97 419.318C1540.61 418.811 1540.35 418.227 1540.18 417.565C1540.02 416.893 1539.93 416.184 1539.93 415.439V414.602C1539.93 413.557 1540.09 412.616 1540.41 411.778C1540.75 410.941 1541.25 410.279 1541.93 409.793C1542.63 409.296 1543.51 409.048 1544.59 409.048C1545.66 409.048 1546.54 409.296 1547.22 409.793C1547.91 410.279 1548.41 410.941 1548.73 411.778C1549.06 412.616 1549.23 413.557 1549.23 414.602V415.439C1549.23 416.184 1549.14 416.893 1548.98 417.565C1548.81 418.227 1548.54 418.811 1548.17 419.318C1547.81 419.824 1547.33 420.228 1546.74 420.528C1546.15 420.817 1545.44 420.962 1544.59 420.962ZM1544.59 419.597C1545.66 419.597 1546.45 419.235 1546.95 418.511C1547.45 417.777 1547.71 416.618 1547.71 415.036C1547.71 413.381 1547.45 412.197 1546.93 411.484C1546.42 410.77 1545.64 410.413 1544.59 410.413C1543.52 410.413 1542.73 410.77 1542.21 411.484C1541.71 412.197 1541.45 413.371 1541.45 415.005C1541.45 416.598 1541.71 417.761 1542.21 418.496C1542.72 419.23 1543.51 419.597 1544.59 419.597ZM1551.48 420.683V418.79H1553.28V420.683H1551.48ZM1559.04 420.962C1558.2 420.962 1557.48 420.797 1556.89 420.466C1556.3 420.135 1555.85 419.695 1555.54 419.147C1555.24 418.599 1555.09 418.004 1555.09 417.363H1556.55C1556.55 418.066 1556.77 418.625 1557.21 419.038C1557.67 419.452 1558.28 419.659 1559.04 419.659C1559.55 419.659 1559.99 419.566 1560.36 419.38C1560.73 419.194 1561.02 418.93 1561.23 418.589C1561.44 418.237 1561.54 417.828 1561.54 417.363C1561.54 416.66 1561.31 416.091 1560.86 415.657C1560.41 415.222 1559.81 415.005 1559.06 415.005C1558.74 415.005 1558.46 415.046 1558.22 415.129C1557.99 415.202 1557.79 415.295 1557.62 415.408L1556.87 414.074L1561.2 410.91L1561.05 410.63H1555.54V409.358H1562.44V411.422L1558.86 414.028L1557.77 414.074C1557.95 414.012 1558.14 413.961 1558.35 413.919C1558.56 413.878 1558.82 413.857 1559.11 413.857C1559.93 413.857 1560.64 414.012 1561.22 414.323C1561.8 414.633 1562.23 415.046 1562.53 415.564C1562.84 416.081 1563 416.644 1563 417.254V417.472C1563 418.071 1562.84 418.64 1562.53 419.178C1562.23 419.706 1561.79 420.135 1561.2 420.466C1560.62 420.797 1559.9 420.962 1559.04 420.962ZM1569.35 420.993C1568.52 420.993 1567.83 420.848 1567.27 420.559C1566.72 420.269 1566.28 419.876 1565.95 419.38C1565.63 418.873 1565.4 418.294 1565.25 417.642C1565.12 416.991 1565.05 416.308 1565.05 415.595V414.85C1565.05 413.061 1565.5 411.685 1566.39 410.723C1567.28 409.751 1568.56 409.265 1570.25 409.265C1570.65 409.265 1570.99 409.276 1571.27 409.296C1571.55 409.317 1571.86 409.348 1572.19 409.389V410.661C1571.85 410.62 1571.53 410.589 1571.24 410.568C1570.95 410.548 1570.6 410.537 1570.19 410.537C1569.25 410.537 1568.5 410.713 1567.95 411.065C1567.4 411.416 1567.01 411.923 1566.77 412.585C1566.54 413.237 1566.42 414.028 1566.42 414.959V415.657L1566.04 417.037C1566.05 416.22 1566.21 415.543 1566.51 415.005C1566.82 414.467 1567.24 414.064 1567.77 413.795C1568.3 413.526 1568.92 413.392 1569.61 413.392C1570.42 413.392 1571.1 413.557 1571.66 413.888C1572.22 414.209 1572.64 414.653 1572.92 415.222C1573.21 415.791 1573.35 416.437 1573.35 417.161C1573.35 417.896 1573.2 418.552 1572.9 419.132C1572.6 419.711 1572.15 420.166 1571.55 420.497C1570.96 420.828 1570.23 420.993 1569.35 420.993ZM1569.35 419.69C1569.92 419.69 1570.39 419.581 1570.78 419.364C1571.16 419.147 1571.44 418.852 1571.63 418.48C1571.83 418.097 1571.92 417.658 1571.92 417.161C1571.92 416.665 1571.83 416.225 1571.64 415.843C1571.46 415.46 1571.18 415.165 1570.81 414.959C1570.44 414.741 1570 414.633 1569.46 414.633C1568.93 414.633 1568.45 414.731 1568.03 414.928C1567.62 415.124 1567.29 415.414 1567.05 415.796C1566.81 416.169 1566.7 416.629 1566.7 417.177C1566.7 417.632 1566.79 418.051 1566.98 418.433C1567.16 418.816 1567.45 419.121 1567.84 419.349C1568.24 419.576 1568.74 419.69 1569.35 419.69ZM1576.39 420.683L1581.19 410.77L1581.09 410.63H1574.91V409.358H1582.51V411.158L1577.95 420.683H1576.39ZM1574.91 412.43V409.358H1576.15V412.43H1574.91ZM1584.67 423.118L1583.47 422.669L1584.91 418.666L1586.14 419.132L1584.67 423.118ZM1592.03 420.962C1591.16 420.962 1590.43 420.786 1589.83 420.435C1589.23 420.073 1588.77 419.602 1588.46 419.023C1588.15 418.444 1588 417.828 1588 417.177H1589.46C1589.46 417.653 1589.56 418.077 1589.77 418.449C1589.98 418.821 1590.28 419.116 1590.67 419.333C1591.05 419.55 1591.5 419.659 1592.03 419.659C1592.55 419.659 1593 419.556 1593.38 419.349C1593.77 419.132 1594.08 418.837 1594.3 418.464C1594.51 418.082 1594.62 417.653 1594.62 417.177C1594.62 416.701 1594.51 416.272 1594.3 415.889C1594.09 415.507 1593.79 415.202 1593.4 414.974C1593.01 414.747 1592.56 414.633 1592.03 414.633C1591.65 414.633 1591.26 414.7 1590.87 414.834C1590.47 414.959 1590.16 415.14 1589.92 415.377H1588.56L1589.13 409.358H1595.07V410.63H1590L1590.37 410.118L1589.94 414.509L1589.53 414.369C1589.83 414.069 1590.19 413.831 1590.62 413.655C1591.05 413.48 1591.54 413.392 1592.09 413.392C1592.96 413.392 1593.69 413.573 1594.28 413.935C1594.87 414.286 1595.31 414.747 1595.61 415.315C1595.92 415.874 1596.08 416.458 1596.08 417.068V417.286C1596.08 417.896 1595.92 418.485 1595.61 419.054C1595.3 419.612 1594.84 420.073 1594.23 420.435C1593.63 420.786 1592.9 420.962 1592.03 420.962ZM1597.54 417.999V416.169L1602.24 409.079L1603.28 409.901L1598.89 416.541L1599.03 416.82H1606.35V417.999H1597.54ZM1603.45 420.683V412.663H1604.85V420.683H1603.45Z" fill="white" id="path5" style="fill:#000000;fill-opacity:1"></path><rect x="1835.38" y="285.152" width="138.648" height="40.7218" rx="20.3609" fill="#6617FF" id="rect5" style="stroke:none;stroke-opacity:1;fill:#fec106;fill-opacity:1"></rect><path d="M1856.34 310.513V299.127H1857.86V310.513H1856.34ZM1863.34 310.513L1859.59 305.471H1861.37L1865.19 310.513H1863.34ZM1857.29 306.418V305.068H1860.33C1860.81 305.068 1861.21 304.97 1861.56 304.773C1861.9 304.577 1862.16 304.308 1862.35 303.967C1862.53 303.615 1862.63 303.217 1862.63 302.772C1862.63 302.327 1862.53 301.934 1862.35 301.593C1862.16 301.242 1861.9 300.967 1861.56 300.771C1861.21 300.564 1860.81 300.461 1860.33 300.461H1857.29V299.127H1860.05C1860.88 299.127 1861.6 299.251 1862.22 299.499C1862.84 299.747 1863.32 300.13 1863.67 300.647C1864.01 301.164 1864.18 301.831 1864.18 302.648V302.896C1864.18 303.713 1864 304.38 1863.65 304.897C1863.31 305.415 1862.83 305.797 1862.21 306.045C1861.6 306.294 1860.88 306.418 1860.05 306.418H1857.29ZM1870.6 310.513C1869.71 310.513 1868.96 310.368 1868.34 310.079C1867.72 309.779 1867.24 309.36 1866.91 308.822C1866.59 308.274 1866.43 307.633 1866.43 306.899H1867.83C1867.83 307.25 1867.91 307.607 1868.07 307.969C1868.25 308.331 1868.54 308.636 1868.94 308.884C1869.35 309.122 1869.9 309.241 1870.6 309.241C1871.53 309.241 1872.22 309.045 1872.67 308.652C1873.12 308.259 1873.35 307.809 1873.35 307.302C1873.35 306.806 1873.15 306.392 1872.74 306.061C1872.34 305.73 1871.76 305.528 1870.99 305.456L1869.97 305.363C1868.97 305.27 1868.18 304.97 1867.59 304.463C1867 303.956 1866.71 303.232 1866.71 302.291C1866.71 301.64 1866.86 301.086 1867.17 300.631C1867.49 300.166 1867.94 299.809 1868.51 299.561C1869.09 299.313 1869.76 299.189 1870.54 299.189C1871.32 299.189 1871.98 299.328 1872.54 299.608C1873.11 299.876 1873.55 300.275 1873.86 300.802C1874.17 301.319 1874.33 301.945 1874.33 302.679H1872.93C1872.93 302.307 1872.85 301.955 1872.68 301.624C1872.52 301.283 1872.26 301.004 1871.91 300.786C1871.56 300.569 1871.11 300.461 1870.54 300.461C1870.03 300.461 1869.6 300.543 1869.24 300.709C1868.89 300.864 1868.61 301.081 1868.42 301.36C1868.23 301.64 1868.14 301.95 1868.14 302.291C1868.14 302.736 1868.3 303.124 1868.62 303.455C1868.94 303.775 1869.43 303.967 1870.09 304.029L1871.11 304.122C1872.22 304.225 1873.11 304.551 1873.77 305.099C1874.44 305.637 1874.78 306.371 1874.78 307.302C1874.78 307.943 1874.61 308.507 1874.26 308.993C1873.92 309.469 1873.44 309.841 1872.82 310.11C1872.2 310.379 1871.46 310.513 1870.6 310.513ZM1869.94 312.514V310.249H1871.27V312.514H1869.94ZM1869.87 299.949V297.684H1871.21V299.949H1869.87ZM1884.11 310.792C1883.24 310.792 1882.51 310.617 1881.91 310.265C1881.31 309.903 1880.85 309.432 1880.54 308.853C1880.23 308.274 1880.08 307.659 1880.08 307.007H1881.54C1881.54 307.483 1881.64 307.907 1881.85 308.279C1882.06 308.652 1882.36 308.946 1882.75 309.164C1883.13 309.381 1883.59 309.489 1884.11 309.489C1884.63 309.489 1885.08 309.386 1885.46 309.179C1885.86 308.962 1886.16 308.667 1886.38 308.295C1886.59 307.912 1886.7 307.483 1886.7 307.007C1886.7 306.531 1886.59 306.102 1886.38 305.72C1886.17 305.337 1885.87 305.032 1885.48 304.804C1885.1 304.577 1884.64 304.463 1884.11 304.463C1883.73 304.463 1883.34 304.53 1882.95 304.665C1882.56 304.789 1882.24 304.97 1882 305.208H1880.64L1881.21 299.189H1887.15V300.461H1882.08L1882.45 299.949L1882.02 304.339L1881.62 304.199C1881.92 303.899 1882.28 303.662 1882.7 303.486C1883.14 303.31 1883.63 303.222 1884.17 303.222C1885.04 303.222 1885.77 303.403 1886.36 303.765C1886.95 304.117 1887.4 304.577 1887.7 305.146C1888.01 305.704 1888.16 306.288 1888.16 306.899V307.116C1888.16 307.726 1888.01 308.316 1887.7 308.884C1887.39 309.443 1886.93 309.903 1886.32 310.265C1885.72 310.617 1884.98 310.792 1884.11 310.792ZM1893.81 310.792C1893 310.792 1892.28 310.648 1891.65 310.358C1891.03 310.068 1890.54 309.665 1890.18 309.148C1889.83 308.631 1889.65 308.031 1889.65 307.349C1889.65 306.893 1889.74 306.485 1889.92 306.123C1890.09 305.751 1890.33 305.43 1890.64 305.161C1890.95 304.892 1891.31 304.685 1891.7 304.541V304.386C1891.39 304.251 1891.1 304.07 1890.85 303.843C1890.6 303.615 1890.4 303.346 1890.24 303.036C1890.1 302.726 1890.02 302.374 1890.02 301.981C1890.02 301.329 1890.19 300.776 1890.54 300.321C1890.89 299.866 1891.35 299.52 1891.92 299.282C1892.5 299.034 1893.13 298.909 1893.81 298.909C1894.5 298.909 1895.13 299.034 1895.7 299.282C1896.28 299.52 1896.74 299.866 1897.08 300.321C1897.42 300.776 1897.59 301.329 1897.59 301.981C1897.59 302.374 1897.52 302.726 1897.38 303.036C1897.23 303.346 1897.03 303.615 1896.77 303.843C1896.52 304.07 1896.24 304.251 1895.92 304.386V304.541C1896.32 304.685 1896.68 304.897 1896.99 305.177C1897.3 305.446 1897.54 305.766 1897.72 306.139C1897.89 306.5 1897.98 306.904 1897.98 307.349C1897.98 308.031 1897.8 308.631 1897.44 309.148C1897.09 309.665 1896.6 310.068 1895.97 310.358C1895.34 310.648 1894.63 310.792 1893.81 310.792ZM1893.81 309.52C1894.38 309.52 1894.86 309.432 1895.27 309.257C1895.67 309.07 1895.98 308.812 1896.2 308.481C1896.42 308.14 1896.52 307.742 1896.52 307.286C1896.52 306.831 1896.42 306.438 1896.2 306.107C1895.99 305.777 1895.69 305.523 1895.28 305.347C1894.88 305.161 1894.39 305.068 1893.81 305.068C1893.24 305.068 1892.75 305.161 1892.35 305.347C1891.95 305.523 1891.64 305.777 1891.42 306.107C1891.21 306.438 1891.11 306.831 1891.11 307.286C1891.11 307.742 1891.21 308.14 1891.42 308.481C1891.64 308.812 1891.95 309.07 1892.35 309.257C1892.75 309.432 1893.24 309.52 1893.81 309.52ZM1893.81 303.889C1894.51 303.889 1895.08 303.739 1895.5 303.439C1895.92 303.129 1896.14 302.658 1896.14 302.028C1896.14 301.386 1895.92 300.921 1895.48 300.631C1895.06 300.331 1894.5 300.181 1893.81 300.181C1893.12 300.181 1892.55 300.331 1892.12 300.631C1891.69 300.931 1891.48 301.397 1891.48 302.028C1891.48 302.658 1891.69 303.129 1892.12 303.439C1892.55 303.739 1893.12 303.889 1893.81 303.889ZM1899.89 310.513V308.621H1901.69V310.513H1899.89ZM1907.45 310.792C1906.6 310.792 1905.89 310.627 1905.3 310.296C1904.71 309.965 1904.26 309.526 1903.95 308.977C1903.65 308.429 1903.5 307.835 1903.5 307.193H1904.95C1904.95 307.897 1905.18 308.455 1905.62 308.869C1906.08 309.282 1906.69 309.489 1907.45 309.489C1907.96 309.489 1908.4 309.396 1908.77 309.21C1909.14 309.024 1909.43 308.76 1909.64 308.419C1909.85 308.067 1909.95 307.659 1909.95 307.193C1909.95 306.49 1909.72 305.921 1909.27 305.487C1908.82 305.053 1908.22 304.835 1907.47 304.835C1907.15 304.835 1906.87 304.877 1906.63 304.96C1906.4 305.032 1906.2 305.125 1906.02 305.239L1905.28 303.905L1909.61 300.74L1909.45 300.461H1903.95V299.189H1910.85V301.252L1907.27 303.858L1906.18 303.905C1906.36 303.843 1906.55 303.791 1906.75 303.749C1906.97 303.708 1907.22 303.687 1907.51 303.687C1908.34 303.687 1909.04 303.843 1909.62 304.153C1910.2 304.463 1910.64 304.877 1910.94 305.394C1911.25 305.911 1911.41 306.475 1911.41 307.085V307.302C1911.41 307.902 1911.25 308.471 1910.94 309.008C1910.64 309.536 1910.2 309.965 1909.61 310.296C1909.03 310.627 1908.31 310.792 1907.45 310.792ZM1913.52 310.513V308.652C1913.52 308.197 1913.58 307.809 1913.71 307.488C1913.84 307.168 1914.07 306.878 1914.39 306.619C1914.71 306.351 1915.15 306.092 1915.69 305.844L1917.82 304.866C1918.34 304.629 1918.74 304.323 1919.04 303.951C1919.34 303.569 1919.49 303.077 1919.49 302.477C1919.49 301.753 1919.29 301.19 1918.89 300.786C1918.49 300.383 1917.92 300.181 1917.18 300.181C1916.46 300.181 1915.89 300.383 1915.48 300.786C1915.06 301.19 1914.86 301.753 1914.86 302.477H1913.4C1913.4 301.826 1913.53 301.226 1913.8 300.678C1914.08 300.13 1914.5 299.695 1915.06 299.375C1915.62 299.044 1916.32 298.878 1917.18 298.878C1918.04 298.878 1918.74 299.044 1919.29 299.375C1919.85 299.695 1920.26 300.119 1920.53 300.647C1920.81 301.174 1920.95 301.748 1920.95 302.369V302.586C1920.95 303.403 1920.71 304.091 1920.24 304.649C1919.77 305.208 1919.14 305.668 1918.35 306.03L1916.22 307.007C1915.74 307.224 1915.42 307.442 1915.26 307.659C1915.09 307.876 1915.01 308.166 1915.01 308.528V309.955L1914.61 309.241H1921.09V310.513H1913.52ZM1924.17 310.513L1928.96 300.6L1928.87 300.461H1922.68V299.189H1930.28V300.988L1925.72 310.513H1924.17ZM1922.68 302.26V299.189H1923.92V302.26H1922.68ZM1932.44 312.949L1931.24 312.499L1932.69 308.496L1933.91 308.962L1932.44 312.949ZM1936.08 310.513V308.652C1936.08 308.197 1936.14 307.809 1936.27 307.488C1936.4 307.168 1936.63 306.878 1936.95 306.619C1937.27 306.351 1937.7 306.092 1938.25 305.844L1940.38 304.866C1940.89 304.629 1941.3 304.323 1941.6 303.951C1941.9 303.569 1942.05 303.077 1942.05 302.477C1942.05 301.753 1941.85 301.19 1941.45 300.786C1941.04 300.383 1940.47 300.181 1939.74 300.181C1939.02 300.181 1938.45 300.383 1938.03 300.786C1937.62 301.19 1937.41 301.753 1937.41 302.477H1935.95C1935.95 301.826 1936.09 301.226 1936.36 300.678C1936.64 300.13 1937.06 299.695 1937.61 299.375C1938.17 299.044 1938.88 298.878 1939.74 298.878C1940.6 298.878 1941.3 299.044 1941.85 299.375C1942.41 299.695 1942.82 300.119 1943.09 300.647C1943.37 301.174 1943.51 301.748 1943.51 302.369V302.586C1943.51 303.403 1943.27 304.091 1942.8 304.649C1942.33 305.208 1941.7 305.668 1940.9 306.03L1938.78 307.007C1938.3 307.224 1937.98 307.442 1937.82 307.659C1937.65 307.876 1937.57 308.166 1937.57 308.528V309.955L1937.16 309.241H1943.65V310.513H1936.08ZM1949.42 310.792C1948.62 310.792 1947.9 310.648 1947.27 310.358C1946.65 310.068 1946.15 309.665 1945.79 309.148C1945.44 308.631 1945.27 308.031 1945.27 307.349C1945.27 306.893 1945.35 306.485 1945.53 306.123C1945.7 305.751 1945.95 305.43 1946.26 305.161C1946.57 304.892 1946.92 304.685 1947.31 304.541V304.386C1947 304.251 1946.72 304.07 1946.46 303.843C1946.21 303.615 1946.01 303.346 1945.85 303.036C1945.71 302.726 1945.64 302.374 1945.64 301.981C1945.64 301.329 1945.81 300.776 1946.15 300.321C1946.5 299.866 1946.96 299.52 1947.53 299.282C1948.11 299.034 1948.74 298.909 1949.42 298.909C1950.12 298.909 1950.75 299.034 1951.32 299.282C1951.89 299.52 1952.35 299.866 1952.7 300.321C1953.04 300.776 1953.21 301.329 1953.21 301.981C1953.21 302.374 1953.14 302.726 1952.99 303.036C1952.85 303.346 1952.64 303.615 1952.39 303.843C1952.14 304.07 1951.85 304.251 1951.53 304.386V304.541C1951.94 304.685 1952.29 304.897 1952.6 305.177C1952.91 305.446 1953.16 305.766 1953.33 306.139C1953.51 306.5 1953.6 306.904 1953.6 307.349C1953.6 308.031 1953.41 308.631 1953.05 309.148C1952.7 309.665 1952.21 310.068 1951.58 310.358C1950.96 310.648 1950.24 310.792 1949.42 310.792ZM1949.42 309.52C1949.99 309.52 1950.48 309.432 1950.88 309.257C1951.28 309.07 1951.59 308.812 1951.81 308.481C1952.03 308.14 1952.14 307.742 1952.14 307.286C1952.14 306.831 1952.03 306.438 1951.81 306.107C1951.6 305.777 1951.3 305.523 1950.9 305.347C1950.49 305.161 1950 305.068 1949.42 305.068C1948.85 305.068 1948.37 305.161 1947.96 305.347C1947.56 305.523 1947.25 305.777 1947.03 306.107C1946.83 306.438 1946.72 306.831 1946.72 307.286C1946.72 307.742 1946.83 308.14 1947.03 308.481C1947.25 308.812 1947.56 309.07 1947.96 309.257C1948.37 309.432 1948.85 309.52 1949.42 309.52ZM1949.42 303.889C1950.13 303.889 1950.69 303.739 1951.11 303.439C1951.54 303.129 1951.75 302.658 1951.75 302.028C1951.75 301.386 1951.53 300.921 1951.1 300.631C1950.67 300.331 1950.12 300.181 1949.42 300.181C1948.73 300.181 1948.17 300.331 1947.73 300.631C1947.31 300.931 1947.1 301.397 1947.1 302.028C1947.1 302.658 1947.31 303.129 1947.73 303.439C1948.17 303.739 1948.73 303.889 1949.42 303.889Z" fill="white" id="path6" style="stroke:none;stroke-opacity:1;fill:#000000"></path><rect x="2127" y="95" width="139.618" height="40.7218" rx="20.3609" fill="#6617FF" id="rect6" style="fill:#fec106;fill-opacity:1"></rect><path d="M2147.95 120.361V108.974H2149.47V120.361H2147.95ZM2154.95 120.361L2151.2 115.319H2152.98L2156.8 120.361H2154.95ZM2148.9 116.265V114.916H2151.94C2152.42 114.916 2152.82 114.818 2153.17 114.621C2153.51 114.425 2153.77 114.156 2153.96 113.814C2154.14 113.463 2154.24 113.065 2154.24 112.62C2154.24 112.175 2154.14 111.782 2153.96 111.441C2153.77 111.089 2153.51 110.815 2153.17 110.619C2152.82 110.412 2152.42 110.308 2151.94 110.308H2148.9V108.974H2151.66C2152.49 108.974 2153.21 109.098 2153.83 109.347C2154.45 109.595 2154.93 109.977 2155.28 110.495C2155.62 111.012 2155.79 111.679 2155.79 112.496V112.744C2155.79 113.561 2155.61 114.228 2155.26 114.745C2154.92 115.262 2154.44 115.645 2153.82 115.893C2153.21 116.141 2152.49 116.265 2151.66 116.265H2148.9ZM2162.21 120.361C2161.32 120.361 2160.57 120.216 2159.95 119.926C2159.33 119.627 2158.85 119.208 2158.52 118.67C2158.2 118.122 2158.04 117.481 2158.04 116.746H2159.44C2159.44 117.098 2159.52 117.455 2159.68 117.817C2159.86 118.179 2160.15 118.484 2160.55 118.732C2160.96 118.97 2161.51 119.089 2162.21 119.089C2163.14 119.089 2163.83 118.892 2164.28 118.499C2164.73 118.106 2164.96 117.656 2164.96 117.15C2164.96 116.653 2164.76 116.24 2164.35 115.909C2163.95 115.578 2163.37 115.376 2162.6 115.304L2161.58 115.211C2160.58 115.117 2159.79 114.818 2159.2 114.311C2158.61 113.804 2158.32 113.08 2158.32 112.139C2158.32 111.487 2158.47 110.934 2158.78 110.479C2159.1 110.014 2159.55 109.657 2160.12 109.409C2160.7 109.16 2161.37 109.036 2162.15 109.036C2162.93 109.036 2163.59 109.176 2164.15 109.455C2164.72 109.724 2165.16 110.122 2165.47 110.65C2165.78 111.167 2165.94 111.792 2165.94 112.527H2164.54C2164.54 112.154 2164.46 111.803 2164.29 111.472C2164.13 111.131 2163.87 110.851 2163.52 110.634C2163.17 110.417 2162.72 110.308 2162.15 110.308C2161.64 110.308 2161.21 110.391 2160.85 110.557C2160.5 110.712 2160.22 110.929 2160.03 111.208C2159.84 111.487 2159.75 111.798 2159.75 112.139C2159.75 112.584 2159.91 112.971 2160.23 113.302C2160.55 113.623 2161.04 113.814 2161.7 113.876L2162.72 113.969C2163.83 114.073 2164.72 114.399 2165.38 114.947C2166.05 115.485 2166.39 116.219 2166.39 117.15C2166.39 117.791 2166.21 118.354 2165.87 118.841C2165.53 119.316 2165.05 119.689 2164.43 119.958C2163.81 120.226 2163.07 120.361 2162.21 120.361ZM2161.55 122.362V120.097H2162.88V122.362H2161.55ZM2161.48 109.796V107.532H2162.82V109.796H2161.48ZM2173.05 120.361L2177.85 110.448L2177.75 110.308H2171.57V109.036H2179.17V110.836L2174.61 120.361H2173.05ZM2171.57 112.108V109.036H2172.81V112.108H2171.57ZM2185.14 120.671C2184.32 120.671 2183.62 120.526 2183.06 120.237C2182.52 119.947 2182.08 119.554 2181.75 119.058C2181.42 118.551 2181.19 117.972 2181.05 117.32C2180.91 116.669 2180.85 115.986 2180.85 115.273V114.528C2180.85 112.739 2181.29 111.363 2182.18 110.401C2183.07 109.429 2184.36 108.943 2186.04 108.943C2186.45 108.943 2186.79 108.954 2187.07 108.974C2187.35 108.995 2187.65 109.026 2187.98 109.067V110.339C2187.64 110.298 2187.32 110.267 2187.03 110.246C2186.75 110.226 2186.39 110.215 2185.98 110.215C2185.04 110.215 2184.29 110.391 2183.75 110.743C2183.2 111.094 2182.81 111.601 2182.57 112.263C2182.33 112.915 2182.21 113.706 2182.21 114.637V115.335L2181.84 116.715C2181.85 115.898 2182 115.221 2182.3 114.683C2182.61 114.145 2183.03 113.742 2183.56 113.473C2184.1 113.204 2184.71 113.07 2185.41 113.07C2186.21 113.07 2186.9 113.235 2187.45 113.566C2188.01 113.887 2188.43 114.331 2188.71 114.9C2189 115.469 2189.14 116.115 2189.14 116.839C2189.14 117.574 2188.99 118.23 2188.69 118.81C2188.39 119.389 2187.95 119.844 2187.35 120.175C2186.76 120.506 2186.02 120.671 2185.14 120.671ZM2185.14 119.368C2185.71 119.368 2186.19 119.259 2186.57 119.042C2186.95 118.825 2187.24 118.53 2187.42 118.158C2187.62 117.775 2187.72 117.336 2187.72 116.839C2187.72 116.343 2187.62 115.903 2187.44 115.521C2187.25 115.138 2186.97 114.843 2186.6 114.637C2186.24 114.419 2185.79 114.311 2185.25 114.311C2184.72 114.311 2184.25 114.409 2183.82 114.605C2183.41 114.802 2183.08 115.092 2182.85 115.474C2182.61 115.847 2182.49 116.307 2182.49 116.855C2182.49 117.31 2182.58 117.729 2182.77 118.111C2182.96 118.494 2183.24 118.799 2183.64 119.027C2184.03 119.254 2184.53 119.368 2185.14 119.368ZM2191.09 120.361V118.468H2192.89V120.361H2191.09ZM2198.95 120.64C2198.14 120.64 2197.42 120.495 2196.79 120.206C2196.17 119.916 2195.68 119.513 2195.32 118.996C2194.97 118.479 2194.79 117.879 2194.79 117.196C2194.79 116.741 2194.88 116.333 2195.05 115.971C2195.23 115.598 2195.47 115.278 2195.78 115.009C2196.09 114.74 2196.44 114.533 2196.84 114.388V114.233C2196.53 114.099 2196.24 113.918 2195.98 113.69C2195.74 113.463 2195.53 113.194 2195.38 112.884C2195.23 112.573 2195.16 112.222 2195.16 111.829C2195.16 111.177 2195.33 110.624 2195.67 110.169C2196.03 109.714 2196.49 109.367 2197.05 109.129C2197.63 108.881 2198.26 108.757 2198.95 108.757C2199.64 108.757 2200.27 108.881 2200.84 109.129C2201.42 109.367 2201.88 109.714 2202.22 110.169C2202.56 110.624 2202.73 111.177 2202.73 111.829C2202.73 112.222 2202.66 112.573 2202.52 112.884C2202.37 113.194 2202.17 113.463 2201.91 113.69C2201.66 113.918 2201.38 114.099 2201.06 114.233V114.388C2201.46 114.533 2201.82 114.745 2202.13 115.024C2202.44 115.293 2202.68 115.614 2202.86 115.986C2203.03 116.348 2203.12 116.751 2203.12 117.196C2203.12 117.879 2202.94 118.479 2202.58 118.996C2202.23 119.513 2201.73 119.916 2201.1 120.206C2200.48 120.495 2199.76 120.64 2198.95 120.64ZM2198.95 119.368C2199.52 119.368 2200 119.28 2200.41 119.104C2200.81 118.918 2201.12 118.66 2201.34 118.329C2201.55 117.987 2201.66 117.589 2201.66 117.134C2201.66 116.679 2201.55 116.286 2201.34 115.955C2201.13 115.624 2200.82 115.371 2200.42 115.195C2200.02 115.009 2199.53 114.916 2198.95 114.916C2198.38 114.916 2197.89 115.009 2197.49 115.195C2197.09 115.371 2196.78 115.624 2196.56 115.955C2196.35 116.286 2196.25 116.679 2196.25 117.134C2196.25 117.589 2196.35 117.987 2196.56 118.329C2196.78 118.66 2197.09 118.918 2197.49 119.104C2197.89 119.28 2198.38 119.368 2198.95 119.368ZM2198.95 113.737C2199.65 113.737 2200.21 113.587 2200.64 113.287C2201.06 112.977 2201.27 112.506 2201.27 111.875C2201.27 111.234 2201.06 110.769 2200.62 110.479C2200.2 110.179 2199.64 110.029 2198.95 110.029C2198.25 110.029 2197.69 110.179 2197.26 110.479C2196.83 110.779 2196.62 111.244 2196.62 111.875C2196.62 112.506 2196.83 112.977 2197.26 113.287C2197.69 113.587 2198.25 113.737 2198.95 113.737ZM2208.79 120.64C2207.93 120.64 2207.19 120.464 2206.59 120.113C2205.99 119.751 2205.54 119.28 2205.23 118.701C2204.92 118.122 2204.76 117.506 2204.76 116.855H2206.22C2206.22 117.331 2206.32 117.755 2206.53 118.127C2206.75 118.499 2207.05 118.794 2207.43 119.011C2207.81 119.228 2208.27 119.337 2208.79 119.337C2209.31 119.337 2209.76 119.234 2210.14 119.027C2210.54 118.81 2210.84 118.515 2211.06 118.142C2211.28 117.76 2211.38 117.331 2211.38 116.855C2211.38 116.379 2211.28 115.95 2211.06 115.567C2210.85 115.185 2210.55 114.88 2210.16 114.652C2209.78 114.425 2209.32 114.311 2208.79 114.311C2208.41 114.311 2208.02 114.378 2207.63 114.512C2207.24 114.637 2206.92 114.818 2206.68 115.055H2205.32L2205.89 109.036H2211.83V110.308H2206.76L2207.13 109.796L2206.7 114.187L2206.3 114.047C2206.6 113.747 2206.96 113.509 2207.38 113.333C2207.82 113.158 2208.31 113.07 2208.86 113.07C2209.72 113.07 2210.45 113.251 2211.04 113.613C2211.63 113.964 2212.08 114.425 2212.38 114.993C2212.69 115.552 2212.84 116.136 2212.84 116.746V116.963C2212.84 117.574 2212.69 118.163 2212.38 118.732C2212.07 119.29 2211.61 119.751 2211 120.113C2210.4 120.464 2209.66 120.64 2208.79 120.64ZM2214.74 120.361V118.499C2214.74 118.044 2214.8 117.656 2214.92 117.336C2215.06 117.015 2215.28 116.726 2215.6 116.467C2215.93 116.198 2216.36 115.94 2216.91 115.691L2219.03 114.714C2219.55 114.476 2219.96 114.171 2220.26 113.799C2220.56 113.416 2220.71 112.925 2220.71 112.325C2220.71 111.601 2220.51 111.037 2220.1 110.634C2219.7 110.231 2219.13 110.029 2218.4 110.029C2217.67 110.029 2217.1 110.231 2216.69 110.634C2216.28 111.037 2216.07 111.601 2216.07 112.325H2214.61C2214.61 111.674 2214.75 111.074 2215.02 110.526C2215.29 109.977 2215.71 109.543 2216.27 109.222C2216.83 108.892 2217.54 108.726 2218.4 108.726C2219.26 108.726 2219.96 108.892 2220.51 109.222C2221.07 109.543 2221.48 109.967 2221.75 110.495C2222.03 111.022 2222.17 111.596 2222.17 112.216V112.434C2222.17 113.251 2221.93 113.938 2221.45 114.497C2220.99 115.055 2220.36 115.516 2219.56 115.878L2217.44 116.855C2216.96 117.072 2216.64 117.289 2216.47 117.506C2216.31 117.724 2216.23 118.013 2216.23 118.375V119.802L2215.82 119.089H2222.31V120.361H2214.74ZM2224.74 122.796L2223.55 122.347L2224.99 118.344L2226.22 118.81L2224.74 122.796ZM2232.11 120.64C2231.24 120.64 2230.51 120.464 2229.91 120.113C2229.31 119.751 2228.85 119.28 2228.54 118.701C2228.23 118.122 2228.08 117.506 2228.08 116.855H2229.53C2229.53 117.331 2229.64 117.755 2229.84 118.127C2230.06 118.499 2230.36 118.794 2230.74 119.011C2231.13 119.228 2231.58 119.337 2232.11 119.337C2232.63 119.337 2233.08 119.234 2233.46 119.027C2233.85 118.81 2234.16 118.515 2234.37 118.142C2234.59 117.76 2234.7 117.331 2234.7 116.855C2234.7 116.379 2234.59 115.95 2234.37 115.567C2234.17 115.185 2233.87 114.88 2233.47 114.652C2233.09 114.425 2232.64 114.311 2232.11 114.311C2231.73 114.311 2231.34 114.378 2230.95 114.512C2230.55 114.637 2230.24 114.818 2230 115.055H2228.63L2229.21 109.036H2235.15V110.308H2230.08L2230.45 109.796L2230.01 114.187L2229.61 114.047C2229.91 113.747 2230.27 113.509 2230.7 113.333C2231.13 113.158 2231.62 113.07 2232.17 113.07C2233.04 113.07 2233.77 113.251 2234.36 113.613C2234.95 113.964 2235.39 114.425 2235.69 114.993C2236 115.552 2236.16 116.136 2236.16 116.746V116.963C2236.16 117.574 2236 118.163 2235.69 118.732C2235.38 119.29 2234.92 119.751 2234.31 120.113C2233.71 120.464 2232.98 120.64 2232.11 120.64ZM2238.05 120.361V118.499C2238.05 118.044 2238.11 117.656 2238.24 117.336C2238.37 117.015 2238.6 116.726 2238.92 116.467C2239.24 116.198 2239.67 115.94 2240.22 115.691L2242.35 114.714C2242.87 114.476 2243.27 114.171 2243.57 113.799C2243.87 113.416 2244.02 112.925 2244.02 112.325C2244.02 111.601 2243.82 111.037 2243.42 110.634C2243.02 110.231 2242.45 110.029 2241.71 110.029C2240.99 110.029 2240.42 110.231 2240.01 110.634C2239.59 111.037 2239.39 111.601 2239.39 112.325H2237.93C2237.93 111.674 2238.06 111.074 2238.33 110.526C2238.61 109.977 2239.03 109.543 2239.59 109.222C2240.15 108.892 2240.85 108.726 2241.71 108.726C2242.57 108.726 2243.27 108.892 2243.82 109.222C2244.38 109.543 2244.79 109.967 2245.06 110.495C2245.34 111.022 2245.48 111.596 2245.48 112.216V112.434C2245.48 113.251 2245.24 113.938 2244.77 114.497C2244.3 115.055 2243.67 115.516 2242.88 115.878L2240.75 116.855C2240.27 117.072 2239.95 117.289 2239.79 117.506C2239.62 117.724 2239.54 118.013 2239.54 118.375V119.802L2239.14 119.089H2245.62V120.361H2238.05Z" fill="white" id="path7" style="fill:#000000"></path><g filter="url(#filter0_f_145_1012)" id="g7" transform="translate(493.70391,381.90246)" style="fill:#800000"><rect x="1553" y="59" width="644" height="644" rx="322" fill="#6320FE" id="rect7" style="fill:#800000;fill-opacity:1"></rect></g></g><defs id="defs10"><filter id="filter0_f_145_1012" x="753" y="-741" width="2244" height="2244" filterUnits="userSpaceOnUse" color-interpolation-filters="sRGB"></filter><linearGradient id="paint0_linear_145_1012" x1="1419.43" y1="111.486" x2="1419.43" y2="918.591" gradientUnits="userSpaceOnUse"><stop stop-color="#6617FF" stop-opacity="0.3" id="stop9" offset="0" style="stop-color:#ff6c05;stop-opacity:0.3019608;"></stop><stop offset="1" stop-color="#6617FF" stop-opacity="0" id="stop10" style="stop-color:#ff6c05;stop-opacity:0;"></stop></linearGradient><clipPath id="clip0_145_1012"><rect width="2560" height="860" fill="white" id="rect10"></rect></clipPath></defs></svg>